# xmcd CD database file
#
# Track frame offsets:
#	150
#	23132
#	43145
#	59762
#	97996
#	101106
#	124302
#	145090
#
# Disc length: 2191 seconds
#
# Revision: 0
# Processed by: cddbd v1.5.1PL0 Copyright (c) Steve Scherf et al.
# Submitted via: CDex 1.51
#
DISCID=72088d08
DTITLE=Lending Out Tommy - Valerie's Attic
DYEAR=2004
DGENRE=Jazz
TTITLE0=Syntax
TTITLE1=Mattress in the Alley
TTITLE2=Wallingford
TTITLE3=Empire Builder
TTITLE4=Remnants of a Saturday Night Moon Hoax
TTITLE5=Sunday Blues
TTITLE6=Manhattan Wanderlust
TTITLE7=Seriously, I think that clown is following us
EXTD=YEAR: 2004
EXTT0=
EXTT1=
EXTT2=
EXTT3=
EXTT4=
EXTT5=
EXTT6=
EXTT7=
PLAYORDER=
